STARTFONT 2.1
FONT -Adobe-Palatino-Medium-I-Normal--19-140-100-100-P-98-ISO8859-1
SIZE 14 100 100
FONTBOUNDINGBOX 23 19 -3 -5

STARTPROPERTIES 26
_DEC_DEVICE_FONTNAMES "PS=Palatino-Italic"
FONTNAME_REGISTRY ""
FAMILY_NAME "Palatino"
FOUNDRY "Adobe"
WEIGHT_NAME "Medium"
SLANT "I"
SETWIDTH_NAME "Normal"
ADD_STYLE_NAME ""
PIXEL_SIZE 19
POINT_SIZE 140
RESOLUTION_X 100
RESOLUTION_Y 100
SPACING "P"
AVERAGE_WIDTH 98
CHARSET_REGISTRY "ISO8859"
CHARSET_ENCODING "1"
CHARSET_COLLECTIONS "ASCII ISO8859-1 ADOBE-STANDARD"
FULL_NAME "Palatino Italic"
COPYRIGHT "Copyright (c) 1991 Adobe Systems, Inc."
CAP_HEIGHT 13
X_HEIGHT 9
WEIGHT 10
QUAD_WIDTH 12
DEFAULT_CHAR 0
FONT_DESCENT 5
FONT_ASCENT 14
ENDPROPERTIES

CHARS 190

STARTCHAR space
ENCODING 32
SWIDTH 250 0
DWIDTH 5 0
BBX 1 1 0 0
BITMAP
00
ENDCHAR

STARTCHAR exclam
ENCODING 33
SWIDTH 333 0
DWIDTH 6 0
BBX 4 13 0 0
BITMAP
30
30
30
30
30
60
60
60
60
60
00
C0
C0
ENDCHAR

STARTCHAR quotedbl
ENCODING 34
SWIDTH 500 0
DWIDTH 9 0
BBX 4 4 2 9
BITMAP
90
90
90
90
ENDCHAR

STARTCHAR numbersign
ENCODING 35
SWIDTH 606 0
DWIDTH 9 0
BBX 11 13 -1 0
BITMAP
0880
0880
0880
0880
7FE0
1100
1100
1100
FFC0
2200
2200
2200
2200
ENDCHAR

STARTCHAR dollar
ENCODING 36
SWIDTH 500 0
DWIDTH 9 0
BBX 8 16 0 -2
BITMAP
04
0F
35
25
68
68
78
3E
17
13
13
A3
A6
F8
20
20
ENDCHAR

STARTCHAR percent
ENCODING 37
SWIDTH 889 0
DWIDTH 14 0
BBX 13 14 0 -1
BITMAP
38C0
6740
4480
C480
C900
C900
7270
02C8
0488
0588
0990
0990
10E0
1000
ENDCHAR

STARTCHAR ampersand
ENCODING 38
SWIDTH 778 0
DWIDTH 15 0
BBX 14 13 1 0
BITMAP
0380
0C80
1800
1800
0C00
0E04
3004
63F8
C4C0
C060
C060
60C0
1F00
ENDCHAR

STARTCHAR quoteright
ENCODING 39
SWIDTH 278 0
DWIDTH 5 0
BBX 4 5 1 8
BITMAP
30
30
60
40
80
ENDCHAR

STARTCHAR parenleft
ENCODING 40
SWIDTH 333 0
DWIDTH 6 0
BBX 5 16 0 -3
BITMAP
08
10
30
20
60
40
C0
C0
C0
C0
C0
C0
40
60
20
10
ENDCHAR

STARTCHAR parenright
ENCODING 41
SWIDTH 333 0
DWIDTH 6 0
BBX 5 16 0 -3
BITMAP
40
20
30
10
18
18
18
18
18
18
10
30
20
60
40
80
ENDCHAR

STARTCHAR asterisk
ENCODING 42
SWIDTH 389 0
DWIDTH 10 0
BBX 7 7 1 6
BITMAP
18
D8
D0
3E
D6
D8
18
ENDCHAR

STARTCHAR plus
ENCODING 43
SWIDTH 606 0
DWIDTH 11 0
BBX 9 9 0 0
BITMAP
0800
0800
0800
0800
FF80
0800
0800
0800
0800
ENDCHAR

STARTCHAR comma
ENCODING 44
SWIDTH 250 0
DWIDTH 5 0
BBX 4 5 -1 -3
BITMAP
30
30
60
40
80
ENDCHAR

STARTCHAR minus
ENCODING 45
SWIDTH 606 0
DWIDTH 11 0
BBX 9 1 0 4
BITMAP
FF80
ENDCHAR

STARTCHAR period
ENCODING 46
SWIDTH 250 0
DWIDTH 5 0
BBX 2 2 1 0
BITMAP
C0
C0
ENDCHAR

STARTCHAR slash
ENCODING 47
SWIDTH 296 0
DWIDTH 6 0
BBX 5 15 0 -2
BITMAP
08
08
08
10
10
10
20
20
20
40
40
40
80
80
80
ENDCHAR

STARTCHAR zero
ENCODING 48
SWIDTH 500 0
DWIDTH 9 0
BBX 8 13 0 0
BITMAP
1C
22
63
43
C3
C3
C3
C3
C3
C2
C6
44
38
ENDCHAR

STARTCHAR one
ENCODING 49
SWIDTH 500 0
DWIDTH 9 0
BBX 6 13 1 0
BITMAP
18
38
D8
18
18
18
10
30
30
30
30
30
FC
ENDCHAR

STARTCHAR two
ENCODING 50
SWIDTH 500 0
DWIDTH 9 0
BBX 8 13 0 0
BITMAP
1E
67
43
03
03
06
06
0C
18
30
60
C1
FF
ENDCHAR

STARTCHAR three
ENCODING 51
SWIDTH 500 0
DWIDTH 9 0
BBX 8 13 0 0
BITMAP
1E
67
43
03
06
1C
06
03
03
83
83
C6
7C
ENDCHAR

STARTCHAR four
ENCODING 52
SWIDTH 500 0
DWIDTH 9 0
BBX 8 13 0 0
BITMAP
0E
16
16
26
26
46
4C
8C
FF
0C
0C
0C
3F
ENDCHAR

STARTCHAR five
ENCODING 53
SWIDTH 500 0
DWIDTH 9 0
BBX 8 13 0 0
BITMAP
3F
3F
20
20
20
7E
47
03
03
03
82
C6
7C
ENDCHAR

STARTCHAR six
ENCODING 54
SWIDTH 500 0
DWIDTH 9 0
BBX 8 13 0 0
BITMAP
0E
18
20
60
40
DE
E7
C3
C3
C3
C2
46
3C
ENDCHAR

STARTCHAR seven
ENCODING 55
SWIDTH 500 0
DWIDTH 9 0
BBX 8 13 0 0
BITMAP
FF
FE
06
04
0C
08
18
10
30
30
60
60
60
ENDCHAR

STARTCHAR eight
ENCODING 56
SWIDTH 500 0
DWIDTH 9 0
BBX 8 13 0 0
BITMAP
0E
33
61
61
32
3C
3C
4E
C6
82
86
C4
78
ENDCHAR

STARTCHAR nine
ENCODING 57
SWIDTH 500 0
DWIDTH 9 0
BBX 8 13 0 0
BITMAP
3C
62
43
C3
C3
C3
E7
7B
02
06
04
18
70
ENDCHAR

STARTCHAR colon
ENCODING 58
SWIDTH 250 0
DWIDTH 5 0
BBX 3 8 1 0
BITMAP
60
60
00
00
00
00
C0
C0
ENDCHAR

STARTCHAR semicolon
ENCODING 59
SWIDTH 250 0
DWIDTH 5 0
BBX 5 11 -1 -3
BITMAP
18
18
00
00
00
00
30
30
60
40
80
ENDCHAR

STARTCHAR less
ENCODING 60
SWIDTH 606 0
DWIDTH 11 0
BBX 9 9 0 0
BITMAP
0080
0380
0E00
3800
E000
3800
0E00
0380
0080
ENDCHAR

STARTCHAR equal
ENCODING 61
SWIDTH 606 0
DWIDTH 11 0
BBX 9 4 0 3
BITMAP
FF80
0000
0000
FF80
ENDCHAR

STARTCHAR greater
ENCODING 62
SWIDTH 606 0
DWIDTH 11 0
BBX 9 9 1 0
BITMAP
8000
E000
3800
0E00
0380
0E00
3800
E000
8000
ENDCHAR

STARTCHAR question
ENCODING 63
SWIDTH 500 0
DWIDTH 9 0
BBX 6 13 1 0
BITMAP
78
9C
0C
0C
0C
18
30
60
40
40
00
C0
C0
ENDCHAR

STARTCHAR at
ENCODING 64
SWIDTH 747 0
DWIDTH 15 0
BBX 14 13 0 0
BITMAP
03F0
0C08
1004
2364
4CE4
4C64
98C8
98C8
99D0
4E60
4008
3030
0FC0
ENDCHAR

STARTCHAR A
ENCODING 65
SWIDTH 722 0
DWIDTH 12 0
BBX 12 13 -1 0
BITMAP
0300
0300
0700
0580
0980
0980
10C0
1FC0
20C0
2060
4060
4060
E0F0
ENDCHAR

STARTCHAR B
ENCODING 66
SWIDTH 611 0
DWIDTH 11 0
BBX 10 13 0 0
BITMAP
7F80
31C0
30C0
30C0
3080
3100
7F80
61C0
60C0
60C0
60C0
6180
FE00
ENDCHAR

STARTCHAR C
ENCODING 67
SWIDTH 667 0
DWIDTH 13 0
BBX 11 13 1 0
BITMAP
0FE0
3860
6020
6000
C000
C000
C000
C000
C000
C000
6060
71C0
1F00
ENDCHAR

STARTCHAR D
ENCODING 68
SWIDTH 778 0
DWIDTH 14 0
BBX 13 13 0 0
BITMAP
7FC0
3070
3030
3018
3018
2018
6018
6018
6018
6030
6030
60C0
FF00
ENDCHAR

STARTCHAR E
ENCODING 69
SWIDTH 611 0
DWIDTH 11 0
BBX 9 13 1 0
BITMAP
7F80
3080
3080
3000
3000
3000
3F00
6000
6000
6000
6080
6080
FF80
ENDCHAR

STARTCHAR F
ENCODING 70
SWIDTH 556 0
DWIDTH 11 0
BBX 10 13 1 0
BITMAP
7FC0
3040
3040
3000
3000
3000
3F00
6000
6000
6000
6000
6000
F000
ENDCHAR

STARTCHAR G
ENCODING 71
SWIDTH 722 0
DWIDTH 14 0
BBX 12 13 1 0
BITMAP
0FE0
3860
6020
6000
C000
C000
C000
C000
C0F0
C060
6060
70E0
1F00
ENDCHAR

STARTCHAR H
ENCODING 72
SWIDTH 778 0
DWIDTH 15 0
BBX 13 13 1 0
BITMAP
7878
3030
3030
3030
3030
3030
3FE0
6060
6060
6060
6060
6060
F0F0
ENDCHAR

STARTCHAR I
ENCODING 73
SWIDTH 333 0
DWIDTH 7 0
BBX 5 13 1 0
BITMAP
78
30
30
30
30
30
30
60
60
60
60
60
F0
ENDCHAR

STARTCHAR J
ENCODING 74
SWIDTH 333 0
DWIDTH 7 0
BBX 6 17 0 -4
BITMAP
3C
18
18
18
18
18
18
30
30
30
30
30
30
30
30
20
C0
ENDCHAR

STARTCHAR K
ENCODING 75
SWIDTH 667 0
DWIDTH 13 0
BBX 12 13 1 0
BITMAP
7870
30C0
3180
3300
3600
3800
3C00
6600
6700
6380
61C0
60E0
F070
ENDCHAR

STARTCHAR L
ENCODING 76
SWIDTH 556 0
DWIDTH 11 0
BBX 9 13 1 0
BITMAP
7800
3000
3000
3000
3000
3000
3000
6000
6000
6000
6080
6080
FF80
ENDCHAR

STARTCHAR M
ENCODING 77
SWIDTH 944 0
DWIDTH 19 0
BBX 17 13 1 0
BITMAP
380380
1C0700
1C0700
1C0B00
160B00
261300
261300
232300
232300
434300
41C300
418300
E18780
ENDCHAR

STARTCHAR N
ENCODING 78
SWIDTH 778 0
DWIDTH 15 0
BBX 13 13 1 0
BITMAP
7838
3810
2C10
2C10
2610
2610
2310
4320
41A0
41A0
40E0
40E0
E060
ENDCHAR

STARTCHAR O
ENCODING 79
SWIDTH 778 0
DWIDTH 15 0
BBX 13 13 1 0
BITMAP
0FC0
3870
6030
6018
C018
C018
C018
C018
C018
C030
6030
70E0
1F80
ENDCHAR

STARTCHAR P
ENCODING 80
SWIDTH 611 0
DWIDTH 11 0
BBX 10 13 1 0
BITMAP
7F80
31C0
30C0
30C0
30C0
3080
3100
6E00
6000
6000
6000
6000
F000
ENDCHAR

STARTCHAR Q
ENCODING 81
SWIDTH 778 0
DWIDTH 15 0
BBX 13 17 1 -4
BITMAP
0FC0
3870
6030
6018
C018
C018
C018
C018
C018
C030
6030
70E0
1F80
3C00
4710
03E0
00C0
ENDCHAR

STARTCHAR R
ENCODING 82
SWIDTH 667 0
DWIDTH 13 0
BBX 11 13 1 0
BITMAP
7F80
31C0
30C0
30C0
30C0
3180
3E00
6600
6300
6300
6180
61C0
F0E0
ENDCHAR

STARTCHAR S
ENCODING 83
SWIDTH 556 0
DWIDTH 10 0
BBX 8 13 1 0
BITMAP
0F
31
60
60
60
78
1E
07
03
03
83
86
F8
ENDCHAR

STARTCHAR T
ENCODING 84
SWIDTH 611 0
DWIDTH 12 0
BBX 10 13 1 0
BITMAP
FFC0
8C40
8C40
0C00
0C00
0C00
0C00
1800
1800
1800
1800
1800
3C00
ENDCHAR

STARTCHAR U
ENCODING 85
SWIDTH 778 0
DWIDTH 14 0
BBX 12 13 1 0
BITMAP
E0F0
6060
6060
6060
6060
6060
C060
C0C0
C0C0
C0C0
C1C0
E2C0
7CE0
ENDCHAR

STARTCHAR V
ENCODING 86
SWIDTH 722 0
DWIDTH 11 0
BBX 12 13 0 0
BITMAP
F070
6020
6040
6040
3080
3080
3100
3100
1A00
1A00
1C00
1C00
0800
ENDCHAR

STARTCHAR W
ENCODING 87
SWIDTH 944 0
DWIDTH 17 0
BBX 18 13 0 0
BITMAP
FC21C0
306080
306080
30E100
30E100
316200
193200
1A3400
1A3400
1C3800
1C3800
183000
081000
ENDCHAR

STARTCHAR X
ENCODING 88
SWIDTH 722 0
DWIDTH 14 0
BBX 14 13 0 0
BITMAP
3C3C
1818
0C30
0C60
06C0
0380
0300
0780
0CC0
18C0
3060
6030
F078
ENDCHAR

STARTCHAR Y
ENCODING 89
SWIDTH 667 0
DWIDTH 11 0
BBX 11 13 0 0
BITMAP
E060
60C0
3080
3100
1900
1A00
0E00
0C00
0C00
1800
1800
1800
3C00
ENDCHAR

STARTCHAR Z
ENCODING 90
SWIDTH 667 0
DWIDTH 12 0
BBX 12 13 0 0
BITMAP
7FF0
4070
40E0
01C0
0380
0300
0600
0C00
1C00
3800
7020
E020
FFE0
ENDCHAR

STARTCHAR bracketleft
ENCODING 91
SWIDTH 333 0
DWIDTH 6 0
BBX 6 15 0 -2
BITMAP
3C
30
30
30
30
60
60
60
60
60
C0
C0
C0
C0
F0
ENDCHAR

STARTCHAR backslash
ENCODING 92
SWIDTH 606 0
DWIDTH 10 0
BBX 7 14 1 -1
BITMAP
80
80
40
40
20
20
10
10
08
08
04
04
02
02
ENDCHAR

STARTCHAR bracketright
ENCODING 93
SWIDTH 333 0
DWIDTH 6 0
BBX 6 15 -1 -2
BITMAP
3C
0C
0C
0C
0C
18
18
18
18
18
30
30
30
30
F0
ENDCHAR

STARTCHAR asciicircum
ENCODING 94
SWIDTH 606 0
DWIDTH 11 0
BBX 9 9 0 4
BITMAP
0800
0800
1C00
1400
3600
2200
6300
4100
C180
ENDCHAR

STARTCHAR underscore
ENCODING 95
SWIDTH 500 0
DWIDTH 9 0
BBX 9 1 0 -3
BITMAP
FF80
ENDCHAR

STARTCHAR quoteleft
ENCODING 96
SWIDTH 278 0
DWIDTH 5 0
BBX 4 5 1 8
BITMAP
10
20
60
C0
C0
ENDCHAR

STARTCHAR a
ENCODING 97
SWIDTH 444 0
DWIDTH 10 0
BBX 9 9 0 0
BITMAP
1F00
2300
6300
4300
C600
C600
CE80
D700
6600
ENDCHAR

STARTCHAR b
ENCODING 98
SWIDTH 463 0
DWIDTH 9 0
BBX 8 13 0 0
BITMAP
30
70
30
30
66
6B
73
63
C3
C2
C6
C4
78
ENDCHAR

STARTCHAR c
ENCODING 99
SWIDTH 407 0
DWIDTH 7 0
BBX 6 9 0 0
BITMAP
1C
64
40
C0
C0
C0
C0
CC
78
ENDCHAR

STARTCHAR d
ENCODING 100
SWIDTH 500 0
DWIDTH 10 0
BBX 9 13 0 0
BITMAP
0180
0380
0180
0180
1F00
2300
6300
4300
C600
C600
CE80
D700
6600
ENDCHAR

STARTCHAR e
ENCODING 101
SWIDTH 389 0
DWIDTH 8 0
BBX 7 9 0 0
BITMAP
1C
66
46
CC
F0
C0
C0
CC
78
ENDCHAR

STARTCHAR f
ENCODING 102
SWIDTH 278 0
DWIDTH 6 0
BBX 8 18 -2 -5
BITMAP
03
05
0C
0C
0C
3F
18
18
18
18
18
10
30
30
30
20
C0
80
ENDCHAR

STARTCHAR g
ENCODING 103
SWIDTH 500 0
DWIDTH 9 0
BBX 11 14 -2 -5
BITMAP
0F00
19E0
3180
3180
3180
3300
1E00
0800
3E00
6700
C300
8300
C600
7C00
ENDCHAR

STARTCHAR h
ENCODING 104
SWIDTH 500 0
DWIDTH 10 0
BBX 9 13 0 0
BITMAP
3000
7000
3000
3000
6600
6B00
7300
6300
4300
C600
C680
C700
C600
ENDCHAR

STARTCHAR i
ENCODING 105
SWIDTH 278 0
DWIDTH 5 0
BBX 4 13 0 0
BITMAP
30
30
00
00
60
E0
60
60
60
C0
D0
E0
C0
ENDCHAR

STARTCHAR j
ENCODING 106
SWIDTH 278 0
DWIDTH 5 0
BBX 7 18 -3 -5
BITMAP
06
06
00
00
0C
1C
0C
0C
0C
18
18
18
18
30
30
30
E0
C0
ENDCHAR

STARTCHAR k
ENCODING 107
SWIDTH 444 0
DWIDTH 8 0
BBX 8 13 0 0
BITMAP
30
70
30
30
63
66
68
70
D8
D8
CC
CF
C6
ENDCHAR

STARTCHAR l
ENCODING 108
SWIDTH 278 0
DWIDTH 5 0
BBX 4 13 0 0
BITMAP
30
70
30
30
60
60
60
60
C0
C0
D0
E0
C0
ENDCHAR

STARTCHAR m
ENCODING 109
SWIDTH 778 0
DWIDTH 15 0
BBX 14 9 0 0
BITMAP
6630
EB58
7398
6318
4318
C630
C634
C638
C630
ENDCHAR

STARTCHAR n
ENCODING 110
SWIDTH 556 0
DWIDTH 10 0
BBX 9 9 0 0
BITMAP
6600
EB00
7300
6300
4300
C600
C680
C700
C600
ENDCHAR

STARTCHAR o
ENCODING 111
SWIDTH 444 0
DWIDTH 8 0
BBX 7 9 0 0
BITMAP
1C
66
46
C6
C6
C6
C4
CC
70
ENDCHAR

STARTCHAR p
ENCODING 112
SWIDTH 500 0
DWIDTH 9 0
BBX 9 14 -1 -5
BITMAP
3300
7580
3980
3180
6180
6100
6300
6200
7C00
6000
C000
C000
C000
C000
ENDCHAR

STARTCHAR q
ENCODING 113
SWIDTH 463 0
DWIDTH 9 0
BBX 8 14 0 -5
BITMAP
1F
23
63
43
C6
C6
CE
D6
66
06
0C
0C
0C
0C
ENDCHAR

STARTCHAR r
ENCODING 114
SWIDTH 389 0
DWIDTH 6 0
BBX 6 9 0 0
BITMAP
64
EC
74
60
60
C0
C0
C0
C0
ENDCHAR

STARTCHAR s
ENCODING 115
SWIDTH 389 0
DWIDTH 7 0
BBX 7 9 -1 0
BITMAP
1E
22
60
70
3C
0C
0C
88
F0
ENDCHAR

STARTCHAR t
ENCODING 116
SWIDTH 333 0
DWIDTH 5 0
BBX 5 12 0 0
BITMAP
20
60
60
F8
60
60
40
C0
C0
D0
E0
C0
ENDCHAR

STARTCHAR u
ENCODING 117
SWIDTH 556 0
DWIDTH 10 0
BBX 9 9 0 0
BITMAP
6300
E300
6300
6300
C600
C600
CE80
D700
6600
ENDCHAR

STARTCHAR v
ENCODING 118
SWIDTH 500 0
DWIDTH 9 0
BBX 9 9 -1 0
BITMAP
7980
9380
2180
6180
6100
6200
6200
6400
3800
ENDCHAR

STARTCHAR w
ENCODING 119
SWIDTH 722 0
DWIDTH 14 0
BBX 14 9 -1 0
BITMAP
7D8C
919C
218C
610C
6108
6310
6310
6520
39C0
ENDCHAR

STARTCHAR x
ENCODING 120
SWIDTH 500 0
DWIDTH 9 0
BBX 10 9 -1 0
BITMAP
30C0
79C0
1B00
0E00
0C00
1E00
3600
E380
C300
ENDCHAR

STARTCHAR y
ENCODING 121
SWIDTH 500 0
DWIDTH 10 0
BBX 9 14 0 -5
BITMAP
6180
E180
6180
6300
6300
6300
6E00
7600
6600
0600
0400
0C00
F800
6000
ENDCHAR

STARTCHAR z
ENCODING 122
SWIDTH 444 0
DWIDTH 8 0
BBX 8 9 -1 0
BITMAP
39
7F
46
0C
18
30
61
FF
9E
ENDCHAR

STARTCHAR braceleft
ENCODING 123
SWIDTH 333 0
DWIDTH 7 0
BBX 6 16 0 -3
BITMAP
0C
10
30
30
30
30
20
C0
60
60
60
60
60
60
20
18
ENDCHAR

STARTCHAR bar
ENCODING 124
SWIDTH 606 0
DWIDTH 10 0
BBX 1 13 4 0
BITMAP
80
80
80
80
80
80
80
80
80
80
80
80
80
ENDCHAR

STARTCHAR braceright
ENCODING 125
SWIDTH 333 0
DWIDTH 7 0
BBX 6 16 0 -3
BITMAP
60
10
18
18
18
18
18
0C
10
30
30
30
30
30
20
C0
ENDCHAR

STARTCHAR asciitilde
ENCODING 126
SWIDTH 606 0
DWIDTH 11 0
BBX 9 2 0 4
BITMAP
7980
CF00
ENDCHAR

STARTCHAR exclamdown
ENCODING 161
SWIDTH 333 0
DWIDTH 6 0
BBX 4 13 1 -4
BITMAP
30
30
00
60
60
60
60
60
C0
C0
C0
C0
C0
ENDCHAR

STARTCHAR cent
ENCODING 162
SWIDTH 500 0
DWIDTH 9 0
BBX 8 13 0 -2
BITMAP
04
04
1F
69
68
C8
D0
D0
D0
72
3C
20
20
ENDCHAR

STARTCHAR sterling
ENCODING 163
SWIDTH 500 0
DWIDTH 9 0
BBX 9 13 0 0
BITMAP
0780
1880
3000
3000
3000
3000
7E00
3000
3000
3000
2080
4080
FF80
ENDCHAR

STARTCHAR currency
ENCODING 164
SWIDTH 606 0
DWIDTH 9 0
BBX 9 9 0 2
BITMAP
DD80
6300
4100
8080
8080
8080
4100
6300
DD80
ENDCHAR

STARTCHAR yen
ENCODING 165
SWIDTH 500 0
DWIDTH 9 0
BBX 11 13 -1 0
BITMAP
E060
60C0
3080
3100
1900
1A00
7F80
0C00
7F00
1800
1800
1800
3C00
ENDCHAR

STARTCHAR brokenbar
ENCODING 166
SWIDTH 606 0
DWIDTH 10 0
BBX 1 13 4 0
BITMAP
80
80
80
80
80
00
00
80
80
80
80
80
80
ENDCHAR

STARTCHAR section
ENCODING 167
SWIDTH 500 0
DWIDTH 10 0
BBX 9 17 0 -4
BITMAP
0F80
1180
2080
2000
3000
3C00
2F00
4380
4180
6180
7900
1E00
0700
0300
8300
C600
F800
ENDCHAR

STARTCHAR dieresis
ENCODING 168
SWIDTH 333 0
DWIDTH 8 0
BBX 6 2 1 10
BITMAP
CC
CC
ENDCHAR

STARTCHAR copyright
ENCODING 169
SWIDTH 747 0
DWIDTH 15 0
BBX 14 13 0 0
BITMAP
0780
1860
2010
47C8
4C48
8804
8804
8804
4C48
4788
2010
1860
0780
ENDCHAR

STARTCHAR ordfeminine
ENCODING 170
SWIDTH 333 0
DWIDTH 8 0
BBX 5 8 1 5
BITMAP
38
48
90
90
B0
D8
00
F8
ENDCHAR

STARTCHAR guillemotleft
ENCODING 171
SWIDTH 500 0
DWIDTH 11 0
BBX 8 7 1 1
BITMAP
11
33
66
CC
66
33
11
ENDCHAR

STARTCHAR logicalnot
ENCODING 172
SWIDTH 606 0
DWIDTH 11 0
BBX 9 5 0 2
BITMAP
FF80
0080
0080
0080
0080
ENDCHAR

STARTCHAR hyphen
ENCODING 173
SWIDTH 333 0
DWIDTH 6 0
BBX 5 1 0 4
BITMAP
F8
ENDCHAR

STARTCHAR registered
ENCODING 174
SWIDTH 747 0
DWIDTH 15 0
BBX 14 13 0 0
BITMAP
0780
1860
2010
4F08
4488
8484
8704
8484
4488
4EC8
2010
1860
0780
ENDCHAR

STARTCHAR macron
ENCODING 175
SWIDTH 333 0
DWIDTH 7 0
BBX 6 1 0 10
BITMAP
FC
ENDCHAR

STARTCHAR degree
ENCODING 176
SWIDTH 400 0
DWIDTH 7 0
BBX 6 6 1 7
BITMAP
78
CC
84
84
CC
78
ENDCHAR

STARTCHAR plusminus
ENCODING 177
SWIDTH 606 0
DWIDTH 11 0
BBX 9 9 0 0
BITMAP
0800
0800
0800
FF80
0800
0800
0800
0000
FF80
ENDCHAR

STARTCHAR twosuperior
ENCODING 178
SWIDTH 300 0
DWIDTH 6 0
BBX 6 8 0 5
BITMAP
38
4C
0C
18
10
20
40
F8
ENDCHAR

STARTCHAR threesuperior
ENCODING 179
SWIDTH 300 0
DWIDTH 6 0
BBX 7 8 -1 5
BITMAP
3C
66
06
38
0C
04
CC
78
ENDCHAR

STARTCHAR acute
ENCODING 180
SWIDTH 333 0
DWIDTH 6 0
BBX 4 3 1 10
BITMAP
30
60
C0
ENDCHAR

STARTCHAR mu
ENCODING 181
SWIDTH 556 0
DWIDTH 10 0
BBX 10 14 -1 -5
BITMAP
3180
7180
3180
3180
6300
6300
6740
6B80
7300
C000
C000
C000
C000
8000
ENDCHAR

STARTCHAR paragraph
ENCODING 182
SWIDTH 500 0
DWIDTH 10 0
BBX 10 17 0 -4
BITMAP
3FC0
6480
C480
C480
C480
C900
E900
7900
0900
0900
0900
1200
1200
1200
1200
1200
3F00
ENDCHAR

STARTCHAR periodcentered
ENCODING 183
SWIDTH 250 0
DWIDTH 5 0
BBX 2 2 1 4
BITMAP
C0
C0
ENDCHAR

STARTCHAR cedilla
ENCODING 184
SWIDTH 333 0
DWIDTH 6 0
BBX 3 4 1 -4
BITMAP
40
60
20
C0
ENDCHAR

STARTCHAR onesuperior
ENCODING 185
SWIDTH 300 0
DWIDTH 6 0
BBX 4 8 1 5
BITMAP
10
70
30
20
20
60
60
F0
ENDCHAR

STARTCHAR ordmasculine
ENCODING 186
SWIDTH 333 0
DWIDTH 8 0
BBX 5 8 1 5
BITMAP
30
48
88
88
90
60
00
F8
ENDCHAR

STARTCHAR guillemotright
ENCODING 187
SWIDTH 500 0
DWIDTH 11 0
BBX 8 7 1 1
BITMAP
88
CC
66
33
66
CC
88
ENDCHAR

STARTCHAR onequarter
ENCODING 188
SWIDTH 750 0
DWIDTH 14 0
BBX 13 13 0 0
BITMAP
1020
7040
3040
2080
2100
6110
6230
F470
04A0
0920
13F8
1060
20F0
ENDCHAR

STARTCHAR onehalf
ENCODING 189
SWIDTH 750 0
DWIDTH 14 0
BBX 13 13 0 0
BITMAP
1020
7040
3040
2080
2100
6170
6298
F418
0430
0820
1040
1080
21F0
ENDCHAR

STARTCHAR threequarters
ENCODING 190
SWIDTH 750 0
DWIDTH 14 0
BBX 14 13 -1 0
BITMAP
3C10
6620
0620
3840
0C80
0488
CD18
7A38
0250
0490
09FC
0830
1078
ENDCHAR

STARTCHAR questiondown
ENCODING 191
SWIDTH 500 0
DWIDTH 9 0
BBX 6 13 1 -4
BITMAP
0C
0C
00
08
08
18
30
60
C0
C0
C0
E4
78
ENDCHAR

STARTCHAR Agrave
ENCODING 192
SWIDTH 722 0
DWIDTH 12 0
BBX 12 13 -1 0
BITMAP
0600
0300
0180
0000
01C0
02C0
04C0
0FC0
18C0
1060
2060
6060
F0F0
ENDCHAR

STARTCHAR Aacute
ENCODING 193
SWIDTH 722 0
DWIDTH 12 0
BBX 12 13 -1 0
BITMAP
0180
0300
0600
0000
01C0
02C0
04C0
0FC0
18C0
1060
2060
6060
F0F0
ENDCHAR

STARTCHAR Acircumflex
ENCODING 194
SWIDTH 722 0
DWIDTH 12 0
BBX 12 13 -1 0
BITMAP
0100
0380
06C0
0000
01C0
02C0
04C0
0FC0
18C0
1060
2060
6060
F0F0
ENDCHAR

STARTCHAR Atilde
ENCODING 195
SWIDTH 722 0
DWIDTH 12 0
BBX 12 13 -1 0
BITMAP
0740
0B80
0000
0000
01C0
02C0
04C0
0FC0
18C0
1060
2060
6060
F0F0
ENDCHAR

STARTCHAR Adieresis
ENCODING 196
SWIDTH 722 0
DWIDTH 12 0
BBX 12 13 -1 0
BITMAP
0CC0
0CC0
0000
0000
01C0
02C0
04C0
0FC0
18C0
1060
2060
6060
F0F0
ENDCHAR

STARTCHAR Aring
ENCODING 197
SWIDTH 722 0
DWIDTH 12 0
BBX 12 13 -1 0
BITMAP
0180
0240
0240
0180
01C0
02C0
04C0
0FC0
18C0
1060
2060
6060
F0F0
ENDCHAR

STARTCHAR AE
ENCODING 198
SWIDTH 941 0
DWIDTH 18 0
BBX 16 13 0 0
BITMAP
07FF
0161
0261
0260
0460
0460
087E
0FC0
10C0
10C0
20C1
20C1
F1FF
ENDCHAR

STARTCHAR Ccedilla
ENCODING 199
SWIDTH 667 0
DWIDTH 13 0
BBX 12 17 1 -4
BITMAP
0FF0
3830
6010
6000
C000
C000
C000
C000
C000
C000
6030
70E0
1F80
0400
0600
0200
0C00
ENDCHAR

STARTCHAR Egrave
ENCODING 200
SWIDTH 611 0
DWIDTH 11 0
BBX 9 13 1 0
BITMAP
3000
1800
0C00
0000
7F80
3080
3080
3E00
6000
6000
6080
6080
FF80
ENDCHAR

STARTCHAR Eacute
ENCODING 201
SWIDTH 611 0
DWIDTH 11 0
BBX 9 13 1 0
BITMAP
0300
0600
0C00
0000
7F80
3080
3080
3E00
6000
6000
6080
6080
FF80
ENDCHAR

STARTCHAR Ecircumflex
ENCODING 202
SWIDTH 611 0
DWIDTH 11 0
BBX 9 13 1 0
BITMAP
0400
0E00
1B00
0000
7F80
3080
3080
3E00
6000
6000
6080
6080
FF80
ENDCHAR

STARTCHAR Edieresis
ENCODING 203
SWIDTH 611 0
DWIDTH 11 0
BBX 9 13 1 0
BITMAP
1980
1980
0000
0000
7F80
3080
3080
3E00
6000
6000
6080
6080
FF80
ENDCHAR

STARTCHAR Igrave
ENCODING 204
SWIDTH 333 0
DWIDTH 7 0
BBX 5 13 1 0
BITMAP
60
30
18
00
78
30
30
30
60
60
60
60
F0
ENDCHAR

STARTCHAR Iacute
ENCODING 205
SWIDTH 333 0
DWIDTH 7 0
BBX 6 13 1 0
BITMAP
0C
18
30
00
78
30
30
30
60
60
60
60
F0
ENDCHAR

STARTCHAR Icircumflex
ENCODING 206
SWIDTH 333 0
DWIDTH 7 0
BBX 6 13 1 0
BITMAP
10
38
6C
00
78
30
30
30
60
60
60
60
F0
ENDCHAR

STARTCHAR Idieresis
ENCODING 207
SWIDTH 333 0
DWIDTH 7 0
BBX 6 13 1 0
BITMAP
CC
CC
00
00
78
30
30
30
60
60
60
60
F0
ENDCHAR

STARTCHAR Eth
ENCODING 208
SWIDTH 778 0
DWIDTH 14 0
BBX 13 13 0 0
BITMAP
7FC0
3070
3030
3018
3018
3018
FC18
6018
6018
6030
6030
60C0
FF00
ENDCHAR

STARTCHAR Ntilde
ENCODING 209
SWIDTH 778 0
DWIDTH 15 0
BBX 13 13 1 0
BITMAP
0740
0B80
0000
0000
7838
3C10
2E10
2710
2320
43A0
41E0
40E0
E060
ENDCHAR

STARTCHAR Ograve
ENCODING 210
SWIDTH 778 0
DWIDTH 15 0
BBX 13 13 1 0
BITMAP
0C00
0600
0300
0000
0FC0
3870
6030
6018
C018
C030
6030
70E0
1F80
ENDCHAR

STARTCHAR Oacute
ENCODING 211
SWIDTH 778 0
DWIDTH 15 0
BBX 13 13 1 0
BITMAP
00C0
0180
0300
0000
0FC0
3870
6030
6018
C018
C030
6030
70E0
1F80
ENDCHAR

STARTCHAR Ocircumflex
ENCODING 212
SWIDTH 778 0
DWIDTH 15 0
BBX 13 13 1 0
BITMAP
0100
0380
06C0
0000
0FC0
3870
6030
6018
C018
C030
6030
70E0
1F80
ENDCHAR

STARTCHAR Otilde
ENCODING 213
SWIDTH 778 0
DWIDTH 15 0
BBX 13 13 1 0
BITMAP
0740
0B80
0000
0000
0FC0
3870
6030
6018
C018
C030
6030
70E0
1F80
ENDCHAR

STARTCHAR Odieresis
ENCODING 214
SWIDTH 778 0
DWIDTH 15 0
BBX 13 13 1 0
BITMAP
0CC0
0CC0
0000
0000
0FC0
3870
6030
6018
C018
C030
6030
70E0
1F80
ENDCHAR

STARTCHAR multiply
ENCODING 215
SWIDTH 606 0
DWIDTH 11 0
BBX 8 9 1 0
BITMAP
81
C3
66
3C
18
3C
66
C3
81
ENDCHAR

STARTCHAR Oslash
ENCODING 216
SWIDTH 778 0
DWIDTH 15 0
BBX 14 13 0 0
BITMAP
07EC
1C38
3038
306C
60CC
618C
630C
660C
6C0C
7818
3018
7870
CFC0
ENDCHAR

STARTCHAR Ugrave
ENCODING 217
SWIDTH 778 0
DWIDTH 14 0
BBX 12 13 1 0
BITMAP
0C00
0600
0300
0000
F0F0
6060
6060
6060
C0C0
C0C0
C1C0
E2C0
7CE0
ENDCHAR

STARTCHAR Uacute
ENCODING 218
SWIDTH 778 0
DWIDTH 14 0
BBX 12 13 1 0
BITMAP
0180
0300
0600
0000
F0F0
6060
6060
6060
C0C0
C0C0
C1C0
E2C0
7CE0
ENDCHAR

STARTCHAR Ucircumflex
ENCODING 219
SWIDTH 778 0
DWIDTH 14 0
BBX 12 13 1 0
BITMAP
0400
0E00
1B00
0000
F0F0
6060
6060
6060
C0C0
C0C0
C1C0
E2C0
7CE0
ENDCHAR

STARTCHAR Udieresis
ENCODING 220
SWIDTH 778 0
DWIDTH 14 0
BBX 12 13 1 0
BITMAP
1980
1980
0000
0000
F0F0
6060
6060
6060
C0C0
C0C0
C1C0
E2C0
7CE0
ENDCHAR

STARTCHAR Yacute
ENCODING 221
SWIDTH 667 0
DWIDTH 11 0
BBX 10 13 1 0
BITMAP
0300
0600
0C00
0000
E0C0
6180
3300
1600
0C00
1800
1800
3000
7800
ENDCHAR

STARTCHAR Thorn
ENCODING 222
SWIDTH 611 0
DWIDTH 11 0
BBX 10 13 1 0
BITMAP
7800
3000
3000
3F80
31C0
30C0
30C0
6080
6100
7E00
6000
6000
F000
ENDCHAR

STARTCHAR germandbls
ENCODING 223
SWIDTH 500 0
DWIDTH 9 0
BBX 10 18 -2 -5
BITMAP
0380
04C0
0C40
0C40
0C40
3C80
1900
1980
19C0
18C0
1840
1A80
3300
3000
3000
3000
E000
8000
ENDCHAR

STARTCHAR agrave
ENCODING 224
SWIDTH 444 0
DWIDTH 10 0
BBX 9 13 0 0
BITMAP
3000
1800
0C00
0000
1F00
2300
6300
4300
C600
C600
CE80
D700
6600
ENDCHAR

STARTCHAR aacute
ENCODING 225
SWIDTH 444 0
DWIDTH 10 0
BBX 9 13 0 0
BITMAP
0300
0600
0C00
0000
1F00
2300
6300
4300
C600
C600
CE80
D700
6600
ENDCHAR

STARTCHAR acircumflex
ENCODING 226
SWIDTH 444 0
DWIDTH 10 0
BBX 9 13 0 0
BITMAP
0400
0E00
1B00
0000
1F00
2300
6300
4300
C600
C600
CE80
D700
6600
ENDCHAR

STARTCHAR atilde
ENCODING 227
SWIDTH 444 0
DWIDTH 10 0
BBX 9 12 0 0
BITMAP
1D00
2E00
0000
1F00
2300
6300
4300
C600
C600
CE80
D700
6600
ENDCHAR

STARTCHAR adieresis
ENCODING 228
SWIDTH 444 0
DWIDTH 10 0
BBX 9 12 0 0
BITMAP
3300
3300
0000
1F00
2300
6300
4300
C600
C600
CE80
D700
6600
ENDCHAR

STARTCHAR aring
ENCODING 229
SWIDTH 444 0
DWIDTH 10 0
BBX 9 14 0 0
BITMAP
0600
0900
0900
0600
0000
1F00
2300
6300
4300
C600
C600
CE80
D700
6600
ENDCHAR

STARTCHAR ae
ENCODING 230
SWIDTH 638 0
DWIDTH 14 0
BBX 13 9 0 0
BITMAP
3C70
2698
0318
0330
1FC0
6300
C700
CB30
71E0
ENDCHAR

STARTCHAR ccedilla
ENCODING 231
SWIDTH 407 0
DWIDTH 7 0
BBX 6 13 0 -4
BITMAP
1C
64
40
C0
C0
C0
C0
CC
78
20
30
10
60
ENDCHAR

STARTCHAR egrave
ENCODING 232
SWIDTH 389 0
DWIDTH 8 0
BBX 7 13 0 0
BITMAP
60
30
18
00
1C
66
46
CC
F0
C0
C0
CC
78
ENDCHAR

STARTCHAR eacute
ENCODING 233
SWIDTH 389 0
DWIDTH 8 0
BBX 7 13 0 0
BITMAP
06
0C
18
00
1C
66
46
CC
F0
C0
C0
CC
78
ENDCHAR

STARTCHAR ecircumflex
ENCODING 234
SWIDTH 389 0
DWIDTH 8 0
BBX 7 13 0 0
BITMAP
08
1C
36
00
1C
66
46
CC
F0
C0
C0
CC
78
ENDCHAR

STARTCHAR edieresis
ENCODING 235
SWIDTH 389 0
DWIDTH 8 0
BBX 7 12 0 0
BITMAP
66
66
00
1C
66
46
CC
F0
C0
C0
CC
78
ENDCHAR

STARTCHAR igrave
ENCODING 236
SWIDTH 278 0
DWIDTH 5 0
BBX 4 13 0 0
BITMAP
C0
60
30
00
60
E0
60
60
60
C0
C0
E0
C0
ENDCHAR

STARTCHAR iacute
ENCODING 237
SWIDTH 278 0
DWIDTH 5 0
BBX 5 13 0 0
BITMAP
18
30
60
00
60
E0
60
60
60
C0
C0
E0
C0
ENDCHAR

STARTCHAR icircumflex
ENCODING 238
SWIDTH 278 0
DWIDTH 5 0
BBX 5 13 0 0
BITMAP
20
70
D8
00
60
E0
60
60
60
C0
C0
E0
C0
ENDCHAR

STARTCHAR idieresis
ENCODING 239
SWIDTH 278 0
DWIDTH 5 0
BBX 6 12 -1 0
BITMAP
CC
CC
00
30
70
30
30
30
60
60
70
60
ENDCHAR

STARTCHAR eth
ENCODING 240
SWIDTH 444 0
DWIDTH 8 0
BBX 7 13 0 0
BITMAP
74
98
2C
0C
1E
66
46
C6
C6
C6
C4
CC
70
ENDCHAR

STARTCHAR ntilde
ENCODING 241
SWIDTH 556 0
DWIDTH 10 0
BBX 9 12 0 0
BITMAP
1D00
2E00
0000
6600
EB00
7300
6300
4300
C600
C680
C700
C600
ENDCHAR

STARTCHAR ograve
ENCODING 242
SWIDTH 444 0
DWIDTH 8 0
BBX 7 13 0 0
BITMAP
60
30
18
00
1C
66
46
C6
C6
C6
C4
CC
70
ENDCHAR

STARTCHAR oacute
ENCODING 243
SWIDTH 444 0
DWIDTH 8 0
BBX 7 13 0 0
BITMAP
06
0C
18
00
1C
66
46
C6
C6
C6
C4
CC
70
ENDCHAR

STARTCHAR ocircumflex
ENCODING 244
SWIDTH 444 0
DWIDTH 8 0
BBX 7 13 0 0
BITMAP
08
1C
36
00
1C
66
46
C6
C6
C6
C4
CC
70
ENDCHAR

STARTCHAR otilde
ENCODING 245
SWIDTH 444 0
DWIDTH 8 0
BBX 7 12 0 0
BITMAP
1A
2C
00
1C
66
46
C6
C6
C6
C4
CC
70
ENDCHAR

STARTCHAR odieresis
ENCODING 246
SWIDTH 444 0
DWIDTH 8 0
BBX 7 12 0 0
BITMAP
66
66
00
1C
66
46
C6
C6
C6
C4
CC
70
ENDCHAR

STARTCHAR divide
ENCODING 247
SWIDTH 606 0
DWIDTH 11 0
BBX 10 9 0 0
BITMAP
0C00
0C00
0000
0000
FFC0
0000
0000
0C00
0C00
ENDCHAR

STARTCHAR oslash
ENCODING 248
SWIDTH 444 0
DWIDTH 8 0
BBX 9 9 -1 0
BITMAP
0E80
3300
2300
6700
6B00
7300
6200
6600
B800
ENDCHAR

STARTCHAR ugrave
ENCODING 249
SWIDTH 556 0
DWIDTH 10 0
BBX 9 13 0 0
BITMAP
3000
1800
0C00
0000
6300
E300
6300
6300
C600
C600
CE80
D700
6600
ENDCHAR

STARTCHAR uacute
ENCODING 250
SWIDTH 556 0
DWIDTH 10 0
BBX 9 13 0 0
BITMAP
0300
0600
0C00
0000
6300
E300
6300
6300
C600
C600
CE80
D700
6600
ENDCHAR

STARTCHAR ucircumflex
ENCODING 251
SWIDTH 556 0
DWIDTH 10 0
BBX 9 13 0 0
BITMAP
0800
1C00
3600
0000
6300
E300
6300
6300
C600
C600
CE80
D700
6600
ENDCHAR

STARTCHAR udieresis
ENCODING 252
SWIDTH 556 0
DWIDTH 10 0
BBX 9 12 0 0
BITMAP
3300
3300
0000
6300
E300
6300
6300
C600
C600
CE80
D700
6600
ENDCHAR

STARTCHAR yacute
ENCODING 253
SWIDTH 500 0
DWIDTH 10 0
BBX 9 18 0 -5
BITMAP
0300
0600
0C00
0000
6180
E180
6180
6300
6300
6300
6E00
7600
6600
0600
0400
0C00
F800
6000
ENDCHAR

STARTCHAR thorn
ENCODING 254
SWIDTH 500 0
DWIDTH 9 0
BBX 9 18 -1 -5
BITMAP
1800
3800
1800
1800
3300
3580
3980
3180
6180
6100
6300
6200
7C00
6000
C000
C000
C000
C000
ENDCHAR

STARTCHAR ydieresis
ENCODING 255
SWIDTH 500 0
DWIDTH 10 0
BBX 9 17 0 -5
BITMAP
3300
3300
0000
6180
E180
6180
6300
6300
6300
6E00
7600
6600
0600
0400
0C00
F800
6000
ENDCHAR
ENDFONT
